HIERARCHY
ROOT hip
{
  OFFSET 0.0 0.0 0.0
  CHANNELS 6 Xposition Yposition Zposition Zrotation Yrotation Xrotation
  JOINT torso
  {
    OFFSET 0.0 0.0 0.0
    CHANNELS 3 Zrotation Xrotation Yrotation
    JOINT neck
    {
      OFFSET -31.42098999999993 328.8025209999999 74.3554680000002
      CHANNELS 3 Zrotation Xrotation Yrotation
      JOINT head
      {
        OFFSET 3.3519900000001144 303.81732099999994 206.53942900000015
        CHANNELS 3 Zrotation Xrotation Yrotation
        End Site
        {
          OFFSET 0.0 0.0 0.0
        }
      }
    }
    JOINT left_collar
    {
      OFFSET -31.42098999999993 328.8025209999999 74.3554680000002
      CHANNELS 3 Zrotation Xrotation Yrotation
      JOINT left_upper_arm
      {
        OFFSET -124.490479 -8.162841999999841 8.226441000000023
        CHANNELS 3 Zrotation Xrotation Yrotation
        JOINT left_forearm
        {
          OFFSET -253.595764 -1.5758060000000569 105.0729980000001
          CHANNELS 3 Zrotation Xrotation Yrotation
          JOINT left_hand
          {
            OFFSET -269.48803699999996 0.1478270000000066 -55.346191999999974
            CHANNELS 3 Zrotation Xrotation Yrotation
            End Site
            {
              OFFSET 0.0 0.0 0.0
            }
          }
        }
      }
    }
    JOINT right_collar
    {
      OFFSET -31.42098999999993 328.8025209999999 74.3554680000002
      CHANNELS 3 Zrotation Xrotation Yrotation
      JOINT right_upper_arm
      {
        OFFSET 162.02484099999998 0.46441600000002836 2.2303470000001653
        CHANNELS 3 Zrotation Xrotation Yrotation
        JOINT right_forearm
        {
          OFFSET 240.01246700000004 -25.835875999999985 121.34179699999959
          CHANNELS 3 Zrotation Xrotation Yrotation
          JOINT right_hand
          {
            OFFSET 252.48539699999992 18.910399999999868 -67.53466800000001
            CHANNELS 3 Zrotation Xrotation Yrotation
            End Site
            {
              OFFSET 0.0 0.0 0.0
            }
          }
        }
      }
    }
  }
}
MOTION
Frames: 18
Frame Time: 0.01
-283.86749299999974 250.46380599999972 1554.839355 -128.23079589842672 9.875814755163 -171.46370836540655 113.09297683873184 9.345153562507937 -28.26943124620885 8.42376518147485 -41.06216347305875 -6.702435515360002 0.0 0.0 0.0 -7.825529610989543 1.3210140102291306 165.381038989864 46.655994842642514 8.751149197706603 24.617129598474108 48.78278450783086 -7.754625137833835 -6.212590778836582 0.0 0.0 0.0 -10.164400731717858 44.96723052231892 154.93154118001618 3.942785128499545 -4.1925251074033785 -38.92566825730984 -84.73469686793588 -23.522170894371243 2.76366420907017 0.0 0.0 0.0
-283.8666079999997 250.5115509999997 1554.973755 -128.26374084416224 9.89289549829766 -171.31133713682192 113.11301580650266 9.336055956569723 -28.297895462824584 8.348554195269735 -41.02912697963339 -6.638511973779628 0.0 0.0 0.0 -7.739055803431722 0.8688387024493378 165.21683532030454 46.93394403594215 8.9250515386369 24.36375911177894 48.524620116109716 -7.622074211197715 -6.401073407782627 0.0 0.0 0.0 -9.982459626629968 44.30716117093915 154.9854374446346 3.2861299339496357 -4.105750966183431 -38.84903957136192 -84.59418307176618 -23.188207331926776 3.1181597712834304 0.0 0.0 0.0
-283.84362799999974 250.62126199999972 1555.000244 -128.22349394915014 9.876166429259557 -171.44794538585418 113.12893902061889 9.242500623585935 -28.47206141510531 8.23289874952881 -40.817566654616186 -6.537032542122271 0.0 0.0 0.0 -7.6374328041744945 0.34578624166837385 165.01624366323077 47.18177208838579 9.021592247535327 24.26950222449192 48.23031546782854 -7.455969174033104 -6.652031692827027 0.0 0.0 0.0 -9.817262010725338 44.081828175632424 155.25059798903607 3.1098983667079176 -4.0880655333250475 -38.92555723049928 -84.56899706524513 -23.07536163827705 3.2486177176860123 0.0 0.0 0.0
-278.6633609999997 261.8338619999997 1556.218628 -0.3523524231953698 -10.268074773338503 9.031367045620545 2.958156614736787 4.0168450345301725 -0.18323773328015303 1.5773007743179823 -1.7320899771922946 -1.0659261649328093 0.0 0.0 0.0 -1.2651928262225982 0.3572555901546578 -8.04606159521553 57.70136500303284 21.398887974432384 7.197725865702215 30.147590595350366 -1.4239269674306818 -17.962975530624444 0.0 0.0 0.0 -4.522309057410099 -0.25472506078187934 -8.648591914657805 -51.791085695692615 19.92487513140362 -13.211143127316731 -41.06769557450691 -2.7657396857124645 27.663275141752088 0.0 0.0 0.0
-278.64489699999973 261.9909669999997 1556.271729 -0.38886138911919177 -10.134730320559628 8.95418933039606 2.9839802126391195 3.9516850543522493 -0.19622272631380144 1.5153017993148468 -1.8058695979920554 -1.0230044491938814 0.0 0.0 0.0 -1.333628041814304 0.3380758842280178 -7.866705760606456 57.823123397810456 21.483722984094733 7.1447753367745115 30.123565793949552 -1.4748016632494254 -17.769521205791097 0.0 0.0 0.0 -4.496303753335824 -0.24862583284383358 -8.525651711960037 -51.77037370170253 19.91634524311377 -13.208812554766393 -41.15501283986507 -2.7566459913039196 27.699799792159435 0.0 0.0 0.0
-278.6693729999997 262.1453549999997 1556.325928 -0.33838011935056855 -10.138638904355549 9.079670138543205 2.949186019168629 4.004738147642888 -0.18298459898220168 1.538531546512902 -1.8993281254740508 -1.0386397232390907 0.0 0.0 0.0 -1.2868779749895696 0.3532398771580633 -8.027139946680927 57.87688815347387 21.472588148683837 7.201906051267996 29.897735466052332 -1.4737111545175443 -17.730537356049343 0.0 0.0 0.0 -4.530961130979697 -0.2537512001219963 -8.607615284166702 -51.75895309444204 19.916981000690935 -13.199509074152342 -41.1988048531977 -2.7497455401983877 27.725897235244837 0.0 0.0 0.0
-278.69055199999974 262.3343809999997 1556.349365 -0.4584563501949219 -9.999090880799331 9.08308408335582 3.062999724054287 3.954734798676872 -0.21117226506801345 1.510692829661942 -2.033539903354104 -1.0189559567612911 0.0 0.0 0.0 -1.5521329108339306 0.3153556420122875 -7.997718322263242 58.17208570316058 21.530607366048528 7.317806606880576 29.852506396554222 -1.5347591344407308 -17.492851984582774 0.0 0.0 0.0 -4.485285766196677 -0.24746314609929188 -8.512119756915038 -51.77485687827789 19.900321741163786 -13.236150184426084 -41.2666446769516 -2.7548094438102515 27.713410291483104 0.0 0.0 0.0
-278.7153319999997 262.5312499999997 1556.370239 -0.4324914013184731 -9.992440491853717 9.111133127167184 3.0371094676780146 4.03967217539631 -0.19569497653695142 1.5101089132609677 -2.192122831627238 -1.0179434841222201 0.0 0.0 0.0 -1.6254499139807346 0.3074440886132316 -8.038303882411808 58.24398587432704 21.56928634758639 7.305568599281139 29.763820819826584 -1.5982171617374399 -17.236290002410776 0.0 0.0 0.0 -4.410281889354879 -0.2421890882499113 -8.491889064992618 -51.83978095322381 19.89001984428779 -13.298992767950223 -41.30661668355668 -2.7742651360194106 27.650969419315107 0.0 0.0 0.0
-278.75048799999973 262.78414899999973 1556.400513 -0.3978655585834516 -9.85554809916233 9.102555021925703 2.987511744450814 3.9961807647000267 -0.19144934545550468 1.5180893553517052 -2.3284312772079474 -1.022930189817932 0.0 0.0 0.0 -1.5512571931035632 0.3146396166584255 -7.981849121205132 58.195403107724864 21.623594822282456 7.181492918737318 29.659829410916956 -1.6737150490973884 -16.929376156872372 0.0 0.0 0.0 -4.422812850428453 -0.2403459194987789 -8.419381649902364 -51.82906563145685 19.89111341654316 -13.289538602297187 -41.24501328324635 -2.809957040140189 27.52710840820367 0.0 0.0 0.0
-278.7694089999997 263.04916399999973 1556.376953 -0.4703326881834494 -9.790040534850988 9.187423681402917 3.0658411666513454 4.038982450544614 -0.20133120689908193 1.5286581708006926 -2.5052036424485586 -1.0295648410086102 0.0 0.0 0.0 -1.4928254077263114 0.324555998303701 -8.018262215786544 58.06018788621322 21.65984515122143 7.024627739826827 29.55989991505394 -1.7563867951302632 -16.59407736321365 0.0 0.0 0.0 -4.417731411005575 -0.2398190089572635 -8.413164338050722 -51.881031887425 19.886266669774972 -13.3346796182713 -41.16397007176737 -2.854062227442515 27.37300235329611 0.0 0.0 0.0
-278.7731629999997 263.2960209999997 1556.165894 -0.25481130213227154 -9.507653843869107 8.72908836890424 2.8140038467420867 3.9630353710945365 -0.16188970364462726 1.4241261286551006 -2.7568399980481115 -0.9562435668270923 0.0 0.0 0.0 -1.488247625250541 0.29793997541819633 -7.506155142374956 58.19903382580531 21.74570741565465 6.983353853246306 29.461491809820878 -1.8580487447165386 -16.184755307769937 0.0 0.0 0.0 -4.2866741250945095 -0.215782558705726 -7.945933929933022 -51.93794033999094 19.84893450519495 -13.432029347810571 -41.09772533915938 -2.919506675329735 27.147459500788717 0.0 0.0 0.0
-278.8214109999997 263.41369599999973 1556.517578 0.00584942447500975 -9.922302848466954 9.593793152016861 2.667605421611783 4.301008503443948 -0.09296306673153318 1.7267854609603521 -2.8067687858679102 -1.1656683591739583 0.0 0.0 0.0 -1.711245550628626 0.31499608763769343 -8.41496128486272 58.256903708501234 21.865584019998956 6.828269641761172 29.254577045710946 -1.92208810983601 -15.887839216351447 0.0 0.0 0.0 -4.454677934723465 -0.25716864582260174 -8.83185708318641 -52.11928721935954 19.960423138905735 -13.396919066148268 -40.84759116980188 -2.971191056236693 26.95064205816122 0.0 0.0 0.0
-278.8920899999997 263.87899799999974 1556.185425 -0.13523388909320497 -9.43474864919997 8.987634713261544 2.7129423864334217 4.13752605243045 -0.1213072755815509 1.54745857947788 -3.1677935603857788 -1.0401452045422541 0.0 0.0 0.0 -1.4257620920661427 0.3244627346394849 -7.84580366557132 58.14617512044683 21.81340431422465 6.8339482507861105 29.177895915699924 -2.002932014900981 -15.55770496608059 0.0 0.0 0.0 -4.3590385501735325 -0.22214474690911154 -8.011981354620938 -52.02434673089363 19.82580419380182 -13.529344341147821 -40.75078009260797 -3.0254269921201113 26.7570558942228 0.0 0.0 0.0
-278.9876399999997 264.2475889999997 1556.306641 -0.41922832702646007 -9.371479417001211 9.263523829967648 3.0124863819523653 4.154988035972366 -0.17675952016969043 1.5770662601874474 -3.2974009014144725 -1.060248166776881 0.0 0.0 0.0 -1.3493818847062313 0.3482769836045178 -8.093223771085741 58.03964215973053 21.816442578894634 6.75181765188052 29.051324159356323 -2.041531523100496 -15.37424974236383 0.0 0.0 0.0 -4.42161478410832 -0.2299008002672104 -8.13008642260931 -52.03869364685242 19.824668414344824 -13.541433662640014 -40.64007719939483 -3.057106270839327 26.637897252942654 0.0 0.0 0.0
-279.0105589999997 264.58297699999974 1555.894653 -0.40147632526777255 -8.910474067449282 8.365094883337814 2.8860056475343776 4.000306540420355 -0.17130223961753452 1.305729724568835 -3.574867274858093 -0.8703959834940455 0.0 0.0 0.0 -1.2852830582940475 0.3021200694719834 -7.093375387334614 58.2474326916973 21.860550164828798 6.829687944147805 29.088752997967692 -2.112541962809796 -15.111702629270964 0.0 0.0 0.0 -4.159196358523297 -0.1840596196671968 -7.211684476773636 -52.02151350237675 19.690490450254906 -13.729936990689545 -40.78183454458272 -3.082571218898648 26.565714490221996 0.0 0.0 0.0
-279.1535029999997 264.8119809999997 1556.311157 -0.44558180028853095 -9.271051469141259 9.225085907093929 3.0095887961154215 4.240900617256901 -0.1656366177990002 1.5705856655007944 -3.4989079521788145 -1.0550359603604609 0.0 0.0 0.0 -1.6347686098601408 0.2912279522296111 -7.750507520315397 58.470399742228416 22.050540481557555 6.679829433672919 29.071687749136707 -2.1457453335042245 -14.979015715605069 0.0 0.0 0.0 -4.21350572470616 -0.21836017381828304 -8.141466982001955 -52.2069664694799 19.80467067744705 -13.692867015779408 -40.70250519542676 -3.0837497289124878 26.553408050229233 0.0 0.0 0.0
-279.2444459999997 265.0422359999997 1556.333252 -0.49036350364927245 -9.214689558971154 9.247976439915051 3.054523335254092 4.297217286593804 -0.16729041987239845 1.5650607068032847 -3.614165336767585 -1.0507840990474981 0.0 0.0 0.0 -1.57375273384811 0.299662858739885 -7.754869051147773 58.35302018138676 22.050507230064095 6.594892477049969 29.07382506162989 -2.1726850125829595 -14.876035276968423 0.0 0.0 0.0 -4.1923318568521015 -0.21522492147566558 -8.084743404861687 -52.222626443105156 19.7474892846879 -13.789510351297851 -40.703672188900846 -3.062742145612959 26.625170533850387 0.0 0.0 0.0
-279.31555199999974 265.2839969999997 1556.408325 -0.4816688954869438 -9.002771127993627 9.164068526776923 3.0260213150750053 4.216610732790852 -0.17177409292034831 1.548815230743931 -3.736184670155514 -1.0390324194809126 0.0 0.0 0.0 -1.574814819447553 0.2935157923968672 -7.640325003647804 58.37627785658998 22.082045815813085 6.560183556473233 29.046648197082984 -2.194750906857264 -14.782965528608894 0.0 0.0 0.0 -4.130474091973545 -0.20630076064860858 -7.9224522578559435 -52.22777066920072 19.70965700790728 -13.849699938161375 -40.734826511012315 -3.0561366073788503 26.65086558957354 0.0 0.0 0.0
